<svg xmlns="http://www.w3.org/2000/svg" xmlns:xlink="http://www.w3.org/1999/xlink" data-name="Layer 1" width="1022.76"
    height="805.71" viewBox="0 0 1022.76 805.71">
    <defs>
        <linearGradient id="55f29204-bbf8-4e51-a460-f0aa6bf08779-571" x1="618.95" y1="809.58" x2="618.95" y2="383.84"
            gradientUnits="userSpaceOnUse">
            <stop offset="0" stop-color="gray" stop-opacity="0.25" />
            <stop offset="0.54" stop-color="gray" stop-opacity="0.12" />
            <stop offset="1" stop-color="gray" stop-opacity="0.1" />
        </linearGradient>
        <linearGradient id="c12ee75b-8fd4-4091-ace4-e82fe8783f46-572" x1="435.29" y1="747" x2="435.29" y2="47.15"
            xlink:href="#55f29204-bbf8-4e51-a460-f0aa6bf08779-571" />
    </defs>
    <path
        d="M263.42,183.31c-5.48,6.65-7.59,16-9.95,24.79-19,70.84-65.82,127.82-119.14,168.52C111.75,393.87,84.26,417,89.2,447.89c2.66,16.6,14.33,28.82,23,42.34,18.19,28.31,24.09,66.79,15.42,100.68-9.86,38.56-37.42,74.54-28.89,113.53,5.26,24,23.12,41.08,40.29,55.76q40.18,34.33,82.92,64.32c19.1,13.4,39.42,26.44,61.68,28.14,19.6,1.5,38.8-5.95,57.41-13.3,16.26-6.43,32.93-13.12,46.06-26,8.57-8.41,15.4-19.26,24.92-26.14,22.36-16.16,51.08-5.92,76.72,1,60.5,16.24,125.25,10.31,182.82-16.74,88.31-41.5,155.62-128.65,242-175.41,37.14-20.11,77.54-32.59,111.93-58.49a209.09,209.09,0,0,0,49.2-53.24c26-40.11,40.06-91.25,36-141.31s-26.81-98.3-62.54-126.56c-38.25-30.25-86.56-35.9-130.08-54.06-44.94-18.76-84.92-51-129.43-71.13a264.67,264.67,0,0,0-228.29,5.16c-48.44,24.45-97.54,81.62-151.49,85.92C370.42,185.39,293.43,146.89,263.42,183.31Z"
        transform="translate(-88.62 -47.15)" fill="#91B3FA" opacity="0.1" />
</svg>